<svg id="Capa_1" enable-background="new 0 0 512 512" height="512" viewBox="0 0 512 512" width="512" xmlns="http://www.w3.org/2000/svg"><g><g><path d="m467.086 72.289v66.82l-229.793 12.481-229.793-12.481v-66.82c0-9.839 7.98-17.819 17.819-17.819h423.947c9.839-.001 17.82 7.98 17.82 17.819z" fill="#5986cb"/><path d="m467.086 72.289v66.82l-26.401 2v-68.82c0-9.839-7.98-17.819-17.819-17.819h26.401c9.838-.001 17.819 7.98 17.819 17.819z" fill="#4278c3"/><path d="m467.086 139.109v287.255c0 9.839-7.98 17.819-17.819 17.819h-423.948c-9.839 0-17.819-7.98-17.819-17.819v-287.255z" fill="#eaf6ff"/><path d="m467.086 139.109v287.255c0 9.839-7.98 17.819-17.819 17.819h-26.401c9.839 0 17.819-7.98 17.819-17.819v-287.255z" fill="#c8effe"/><path d="m335.422 481.358h146.886c12.256 0 22.191-9.935 22.191-22.191v-146.887c0-12.256-9.935-22.191-22.191-22.191h-146.886c-12.256 0-22.191 9.935-22.191 22.191v146.886c0 12.256 9.935 22.192 22.191 22.192z" fill="#46cc8d"/><path d="m504.5 312.278v146.892c0 12.253-9.931 22.184-22.193 22.184h-37.414c12.262 0 22.193-9.931 22.193-22.184v-146.892c0-12.253-9.931-22.193-22.193-22.193h37.414c12.261 0 22.193 9.941 22.193 22.193z" fill="#00c27a"/><path d="m462.749 371.423v28.593h-39.587v39.587h-28.593v-39.587h-39.587v-28.593h39.587v-39.578h28.593v39.578z" fill="#eaf6ff"/><path d="m52.12 193.458h131.027v48.4h-131.027z" fill="#5986cb"/><path d="m156.747 193.458h26.401v48.4h-26.401z" fill="#4278c3"/><path d="m52.12 290.089h131.027v48.4h-131.027z" fill="#5986cb"/><path d="m156.747 290.089h26.401v48.4h-26.401z" fill="#4278c3"/></g><g><path d="m190.647 193.458c0-4.142-3.357-7.5-7.5-7.5h-131.027c-4.143 0-7.5 3.358-7.5 7.5v48.4c0 4.142 3.357 7.5 7.5 7.5h131.027c4.143 0 7.5-3.358 7.5-7.5zm-15 40.9h-116.027v-33.4h116.027z"/><path d="m190.647 338.489v-48.4c0-4.142-3.357-7.5-7.5-7.5h-131.027c-4.143 0-7.5 3.358-7.5 7.5v48.4c0 4.142 3.357 7.5 7.5 7.5h131.027c4.143 0 7.5-3.358 7.5-7.5zm-15-7.5h-116.027v-33.4h116.027z"/><path d="m482.309 282.589h-7.723v-210.3c0-13.961-11.358-25.319-25.319-25.319h-50.971v-16.328c0-4.142-3.357-7.5-7.5-7.5s-7.5 3.358-7.5 7.5v16.327h-192.297c-4.143 0-7.5 3.358-7.5 7.5s3.357 7.5 7.5 7.5h192.297v16.758c0 4.142 3.357 7.5 7.5 7.5s7.5-3.358 7.5-7.5v-16.758h50.971c5.69 0 10.319 4.629 10.319 10.319v59.32h-444.586v-59.32c0-5.69 4.629-10.319 10.319-10.319h50.97v16.758c0 4.142 3.357 7.5 7.5 7.5s7.5-3.358 7.5-7.5v-16.758h64.878c4.143 0 7.5-3.358 7.5-7.5s-3.357-7.5-7.5-7.5h-64.878v-16.327c0-4.142-3.357-7.5-7.5-7.5s-7.5 3.358-7.5 7.5v16.327h-50.97c-13.961 0-25.319 11.359-25.319 25.32v354.075c0 13.961 11.358 25.319 25.319 25.319h251.347c4.143 0 7.5-3.358 7.5-7.5s-3.357-7.5-7.5-7.5h-251.347c-5.69 0-10.319-4.629-10.319-10.319v-279.755h444.586v135.98h-124.164c-16.372 0-29.691 13.319-29.691 29.691v146.886c0 16.372 13.319 29.691 29.691 29.691h146.887c16.372 0 29.691-13.319 29.691-29.691v-146.886c0-16.372-13.319-29.691-29.691-29.691zm14.691 176.578c0 8.101-6.591 14.691-14.691 14.691h-146.887c-8.101 0-14.691-6.59-14.691-14.691v-146.887c0-8.101 6.591-14.691 14.691-14.691h146.887c8.101 0 14.691 6.59 14.691 14.691z"/><path d="m462.749 363.923h-32.088v-32.078c0-4.142-3.357-7.5-7.5-7.5h-28.592c-4.143 0-7.5 3.358-7.5 7.5v32.078h-32.087c-4.143 0-7.5 3.358-7.5 7.5v28.592c0 4.142 3.357 7.5 7.5 7.5h32.087v32.087c0 4.142 3.357 7.5 7.5 7.5h28.592c4.143 0 7.5-3.358 7.5-7.5v-32.087h32.088c4.143 0 7.5-3.358 7.5-7.5v-28.592c0-4.142-3.357-7.5-7.5-7.5zm-7.5 28.593h-32.088c-4.143 0-7.5 3.358-7.5 7.5v32.087h-13.592v-32.087c0-4.142-3.357-7.5-7.5-7.5h-32.087v-13.592h32.087c4.143 0 7.5-3.358 7.5-7.5v-32.078h13.592v32.078c0 4.142 3.357 7.5 7.5 7.5h32.088z"/><path d="m222.762 209.041h198.042c4.143 0 7.5-3.358 7.5-7.5s-3.357-7.5-7.5-7.5h-198.042c-4.143 0-7.5 3.358-7.5 7.5s3.357 7.5 7.5 7.5z"/><path d="m428.304 233.775c0-4.142-3.357-7.5-7.5-7.5h-198.042c-4.143 0-7.5 3.358-7.5 7.5s3.357 7.5 7.5 7.5h198.042c4.142 0 7.5-3.358 7.5-7.5z"/><path d="m272.123 290.671h-49.361c-4.143 0-7.5 3.358-7.5 7.5s3.357 7.5 7.5 7.5h49.361c4.143 0 7.5-3.358 7.5-7.5s-3.357-7.5-7.5-7.5z"/><path d="m272.123 322.906h-49.361c-4.143 0-7.5 3.358-7.5 7.5s3.357 7.5 7.5 7.5h49.361c4.143 0 7.5-3.358 7.5-7.5s-3.357-7.5-7.5-7.5z"/><path d="m134.412 376.25-16.778 16.779-16.778-16.779c-2.93-2.929-7.678-2.929-10.607 0s-2.929 7.678 0 10.606l22.082 22.082c2.882 2.881 7.725 2.881 10.607 0l22.082-22.082c2.929-2.929 2.929-7.678 0-10.606-2.93-2.929-7.678-2.929-10.608 0z"/></g></g></svg>